<?xml version="1.0" encoding="iso-8859-1"?>
<!-- Uploaded to: SVG Repo, www.svgrepo.com, Generator: SVG Repo Mixer Tools -->
<svg height="800px" width="800px" version="1.1" id="Layer_1" xmlns="http://www.w3.org/2000/svg" xmlns:xlink="http://www.w3.org/1999/xlink" 
	 viewBox="0 0 512 512" xml:space="preserve">
<path style="fill:#51D1F5;" d="M500.705,36.709c-20.087,0-37.855-11.312-48.919-28.642c-11.062,17.33-28.863,28.642-48.967,28.642
	c-20.087,0-37.84-11.312-48.918-28.642c-11.095,17.33-28.865,28.642-48.953,28.642c-20.104,0-37.855-11.312-48.934-28.642
	c-11.062,17.33-28.865,28.642-48.952,28.642c-20.086,0-37.856-11.312-48.934-28.642c-11.095,17.33-28.865,28.642-48.951,28.642
	c-20.089,0-37.857-11.312-48.935-28.642c-11.062,17.33-28.864,28.642-48.951,28.642v50.842l21.513,64.538h457.144l10.756-64.538
	V36.709z"/>
<path style="fill:#16A4CC;" d="M451.76,116.181c-20.086,0-37.856-11.312-48.934-28.642c-11.062,17.33-28.865,28.642-48.967,28.642
	c-20.089,0-37.841-11.312-48.919-28.642c-11.095,17.33-28.865,28.642-48.952,28.642c-20.104,0-37.855-11.312-48.935-28.642
	c-11.062,17.33-28.864,28.642-48.951,28.642s-37.856-11.312-48.935-28.642c-11.062,17.33-28.862,28.642-48.967,28.642
	c-20.083,0-37.831-11.307-48.91-28.63v108.101l244.706,21.513l244.706-21.513V87.551
	C489.641,104.873,471.843,116.181,451.76,116.181z"/>
<path style="fill:#147391;" d="M500.705,196.91c-20.087,0-37.855-11.809-48.919-29.9c-11.062,18.091-28.863,29.9-48.967,29.9
	c-20.087,0-37.84-11.809-48.918-29.9c-11.095,18.091-28.865,29.9-48.953,29.9c-20.104,0-37.855-11.809-48.934-29.9
	c-11.062,18.091-28.865,29.9-48.952,29.9c-20.086,0-37.856-11.809-48.934-29.9c-11.095,18.091-28.865,29.9-48.951,29.9
	c-20.089,0-37.857-11.809-48.935-29.9c-11.062,18.091-28.864,29.9-48.952,29.9V512h489.413V196.91H500.705z"/>
<path style="fill:#FFFFFF;" d="M161.886,372.381c0,10.614,1.792,20.811,5.046,30.337l-28.75,16.599l18.259,31.627l28.791-16.623
	c13.437,15.331,31.749,26.279,52.505,30.378v33.181h36.52v-33.181c20.756-4.099,39.068-15.046,52.506-30.378l28.791,16.623
	l18.26-31.627l-28.751-16.599c3.254-9.526,5.046-19.723,5.046-30.337s-1.792-20.811-5.046-30.337l28.751-16.599l-18.26-31.627
	l-28.791,16.623c-13.437-15.331-31.749-26.279-52.506-30.378v-33.181h-36.52v33.181c-20.755,4.099-39.067,15.046-52.505,30.378
	l-28.791-16.623l-18.259,31.627l28.75,16.599C163.678,351.569,161.886,361.767,161.886,372.381z M255.997,334.196
	c21.089,0,38.185,17.096,38.185,38.185s-17.097,38.185-38.185,38.185c-21.089,0-38.185-17.096-38.185-38.185
	S234.908,334.196,255.997,334.196z"/>
<path d="M380.8,321.012l-18.26-31.628c-1.069-1.852-2.832-3.204-4.898-3.759c-2.064-0.552-4.268-0.264-6.121,0.807l-23.249,13.423
	c-12.721-12.727-28.677-21.961-45.947-26.593v-26.78c0-4.455-3.611-8.067-8.067-8.067h-36.519c-4.456,0-8.067,3.612-8.067,8.067
	v26.78c-17.269,4.632-33.224,13.866-45.947,26.593l-23.249-13.423c-1.854-1.07-4.056-1.36-6.121-0.807
	c-2.066,0.554-3.828,1.907-4.898,3.759l-18.26,31.628c-2.228,3.858-0.906,8.792,2.953,11.02l23.196,13.393
	c-2.343,8.662-3.526,17.567-3.526,26.557s1.183,17.895,3.526,26.557l-23.196,13.393c-3.858,2.228-5.18,7.162-2.953,11.02
	l18.26,31.627c1.069,1.853,2.832,3.204,4.898,3.759c2.066,0.554,4.268,0.265,6.121-0.807l23.249-13.423
	c12.721,12.727,28.677,21.961,45.947,26.594v26.778c0,4.455,3.611,8.067,8.067,8.067h36.519c4.456,0,8.067-3.612,8.067-8.067V470.7
	c17.27-4.632,33.225-13.866,45.947-26.593l23.249,13.422c1.853,1.071,4.056,1.359,6.121,0.807c2.066-0.554,3.828-1.906,4.898-3.759
	l18.26-31.627c2.228-3.858,0.906-8.792-2.953-11.02l-23.196-13.393c2.343-8.662,3.526-17.567,3.526-26.557
	c0-8.991-1.183-17.896-3.526-26.557l23.196-13.393C381.705,329.803,383.027,324.869,380.8,321.012z M341.029,334.656
	c-3.338,1.928-4.847,5.946-3.601,9.594c3.061,8.961,4.613,18.29,4.613,27.73c0,9.439-1.552,18.769-4.613,27.73
	c-1.246,3.647,0.262,7.666,3.601,9.594l21.763,12.566L352.6,439.523l-21.804-12.589c-3.336-1.925-7.564-1.225-10.101,1.669
	c-12.509,14.273-29.555,24.138-48.001,27.78c-3.78,0.746-6.504,4.062-6.504,7.915v25.115h-20.384v-25.114
	c0-3.853-2.725-7.168-6.504-7.914c-18.445-3.642-35.493-13.509-48.001-27.78c-2.537-2.893-6.765-3.594-10.101-1.669l-21.804,12.589
	l-10.193-17.654l21.763-12.566c3.339-1.928,4.847-5.946,3.601-9.594c-3.061-8.962-4.613-18.291-4.613-27.73
	c0-9.44,1.552-18.769,4.613-27.73c1.246-3.647-0.262-7.667-3.601-9.594l-21.763-12.566l10.193-17.654l21.804,12.589
	c3.334,1.925,7.564,1.226,10.101-1.669c12.509-14.273,29.555-24.138,48.001-27.78c3.78-0.746,6.504-4.062,6.504-7.915v-25.114
	h20.384v25.114c0,3.853,2.725,7.168,6.504,7.915c18.445,3.642,35.493,13.509,48.001,27.78c2.536,2.893,6.765,3.595,10.101,1.669
	l21.804-12.589l10.193,17.654L341.029,334.656z"/>
<path d="M255.997,325.728c-25.503,0-46.252,20.749-46.252,46.252s20.749,46.252,46.252,46.252s46.252-20.749,46.252-46.252
	C302.251,346.476,281.502,325.728,255.997,325.728z M255.997,402.098c-16.607,0-30.118-13.511-30.118-30.118
	s13.511-30.118,30.118-30.118s30.118,13.511,30.118,30.118C286.116,388.587,272.605,402.098,255.997,402.098z"/>
<path d="M409.644,83.198c-1.482-2.322-4.047-3.727-6.8-3.727c-2.754,0-5.318,1.405-6.799,3.726
	c-10.108,15.834-25.48,24.915-42.169,24.915c-16.645,0-31.997-9.083-42.12-24.919c-1.482-2.318-4.043-3.722-6.794-3.723
	c-0.001,0-0.002,0-0.003,0c-2.75,0-5.311,1.402-6.794,3.717c-10.142,15.84-25.508,24.925-42.157,24.925
	c-16.654,0-32.014-9.083-42.138-24.919c-1.483-2.319-4.045-3.723-6.797-3.723h-0.003c-2.753,0.001-5.315,1.406-6.797,3.727
	c-10.107,15.833-25.47,24.915-42.151,24.915c-16.655,0-32.015-9.083-42.138-24.919c-1.482-2.318-4.043-3.722-6.794-3.723h-0.003
	c-2.75,0-5.311,1.402-6.794,3.717c-10.142,15.84-25.508,24.925-42.156,24.925c-4.456,0-8.067,3.612-8.067,8.067
	s3.611,8.067,8.067,8.067c18.427,0,36.08-8.537,48.947-23.283c12.854,14.744,30.506,23.283,48.939,23.283
	c18.452,0,36.108-8.535,48.954-23.275c12.855,14.74,30.502,23.275,48.932,23.275c18.426,0,36.081-8.538,48.948-23.283
	c12.852,14.744,30.497,23.283,48.921,23.283c18.46,0,36.12-8.533,48.967-23.271c12.842,14.738,30.484,23.271,48.918,23.271
	c4.456,0,8.067-3.612,8.067-8.067s-3.611-8.067-8.067-8.067C435.102,108.113,419.752,99.031,409.644,83.198z"/>
<path d="M500.705,187.585c-16.659,0-32.011-9.082-42.117-24.915c-1.482-2.322-4.047-3.727-6.8-3.727c-2.755,0-5.318,1.405-6.8,3.727
	c-10.108,15.833-25.476,24.915-42.167,24.915c-16.644,0-31.997-9.083-42.121-24.919c-1.482-2.318-4.043-3.722-6.794-3.722h-0.003
	c-2.75,0-5.311,1.402-6.794,3.717c-10.141,15.84-25.507,24.925-42.156,24.925c-16.654,0-32.014-9.083-42.138-24.919
	c-1.483-2.319-4.045-3.722-6.797-3.722h-0.003c-2.754,0.001-5.315,1.406-6.797,3.727c-10.107,15.833-25.47,24.915-42.151,24.915
	c-16.655,0-32.015-9.083-42.138-24.919c-1.482-2.318-4.043-3.722-6.794-3.722h-0.003c-2.75,0-5.311,1.402-6.794,3.717
	c-10.142,15.84-25.508,24.925-42.156,24.925c-16.655,0-32.015-9.083-42.138-24.919c-1.482-2.319-4.045-3.722-6.797-3.722h-0.003
	c-2.754,0.001-5.315,1.406-6.797,3.727c-10.107,15.833-25.471,24.915-42.152,24.915c-4.456,0-8.067,3.612-8.067,8.067
	c0,4.455,3.611,8.067,8.067,8.067c18.454,0,36.109-8.534,48.955-23.275c12.854,14.74,30.501,23.275,48.932,23.275
	c18.427,0,36.08-8.537,48.947-23.283c12.854,14.744,30.506,23.283,48.939,23.283c18.452,0,36.108-8.534,48.954-23.275
	c12.855,14.74,30.502,23.275,48.932,23.275c18.427,0,36.081-8.538,48.947-23.283c12.854,14.745,30.499,23.283,48.923,23.283
	c18.46,0,36.12-8.533,48.966-23.27c12.843,14.738,30.486,23.27,48.92,23.27c4.456,0,8.067-3.612,8.067-8.067
	C508.776,191.201,505.16,187.585,500.705,187.585z"/>
<path d="M11.292,44.776c18.454,0,36.109-8.534,48.955-23.275c12.854,14.74,30.501,23.275,48.932,23.275
	c18.427,0,36.08-8.537,48.947-23.282c12.854,14.744,30.506,23.282,48.939,23.282c18.452,0,36.108-8.534,48.954-23.275
	c12.855,14.74,30.502,23.275,48.932,23.275c18.427,0,36.081-8.538,48.947-23.282c12.854,14.744,30.498,23.282,48.923,23.282
	c18.46,0,36.12-8.533,48.966-23.27c12.843,14.738,30.486,23.27,48.92,23.27c4.456,0,8.067-3.612,8.067-8.067
	s-3.611-8.067-8.067-8.067c-16.659,0-32.011-9.082-42.117-24.915C457.104,1.405,454.541,0,451.786,0s-5.318,1.405-6.8,3.727
	c-10.108,15.833-25.476,24.915-42.167,24.915c-16.644,0-31.997-9.083-42.121-24.919c-1.482-2.318-4.043-3.721-6.794-3.722h-0.003
	c-2.75,0-5.311,1.402-6.794,3.717c-10.141,15.84-25.506,24.925-42.156,24.925c-16.654,0-32.014-9.083-42.138-24.919
	C261.329,1.403,258.767,0,256.014,0h-0.003c-2.754,0.001-5.315,1.406-6.797,3.727c-10.107,15.833-25.47,24.915-42.151,24.915
	c-16.655,0-32.015-9.083-42.138-24.919c-1.482-2.318-4.043-3.721-6.794-3.722h-0.003c-2.75,0-5.311,1.402-6.794,3.717
	c-10.142,15.84-25.508,24.925-42.156,24.925c-16.655,0-32.015-9.083-42.138-24.919C65.559,1.403,62.995,0,60.243,0H60.24
	c-2.754,0.001-5.315,1.406-6.797,3.727C43.336,19.56,27.972,28.642,11.291,28.642c-4.456,0-8.067,3.612-8.067,8.067
	S6.836,44.776,11.292,44.776z"/>
</svg>